Description

Sinopse e detalhes

Ainda vivendo em um mundo que os odeia, os mutantes passam a sofrer uma discriminação ainda maior quando um novo mutante provoca um ataque ao Presidente dos Estados Unidos, quase matando-o. A notícia faz com que a sociedade se manifeste ainda mais contra os mutantes, fazendo com que ganhe força o projeto do registro de mutantes. William Stryker (Brian Cox), um militar que tem experiência em lidar com mutantes e uma ligação com o passado de Wolverine (Hugh Jackman), torna-se um dos porta-vozes deste pedido, além de se tornar o responsável por um plano que tem por meta erradicar de uma vez por todas os mutantes. Com a autorização do Presidente, Stryker inicia uma grande ofensiva contra os mutantes, invadindo a mansão do Professor Charles Xavier (Patrick Stewart) e forçando que Magneto (Ian McKellen), que fugiu da prisão, se una aos X-Men para combater Stryker.

Format : Matroska
Format version : Version 2
File size : 1.20 GiB
Duration : 2h 13mn
Overall bit rate : 1 281 Kbps
Encoded date : UTC 2013-05-02 18:15:02
Writing application : mkvmerge v6.1.0 ('Old Devil') built on Mar 2 2013 14:32:37
Writing library : libebml v1.3.0 + libmatroska v1.4.0

Video
ID : 1
Format : AVC
Format/Info : Advanced Video Codec
Format profile : High@L4.1
Format settings, CABAC : Yes
Format settings, ReFrames : 4 frames
Codec ID : V_MPEG4/ISO/AVC
Duration : 2h 13mn
Bit rate : 424 Kbps
Width : 720 pixels
Height : 304 pixels
Display aspect ratio : 2.35:1
Frame rate mode : Constant
Frame rate : 23.976 fps
Color space : YUV
Chroma subsampling : 4:2:0
Bit depth : 8 bits
Scan type : Progressive
Bits/(Pixel*Frame) : 0.081
Stream size : 405 MiB (33%)
Writing library : x264 core 130 r2273 b3065e6
Encoding settings : cabac=1 / ref=3 / deblock=1:0:0 / analyse=0x3:0x113 / me=hex / subme=7 / psy=1 / psy_rd=1.00:0.00 / mixed_ref=1 / me_range=16 / chroma_me=1 / trellis=1 / 8x8dct=1 / cqm=0 / deadzone=21,11 / fast_pskip=1 / chroma_qp_offset=-2 / threads=3 / lookahead_threads=1 / sliced_threads=0 / nr=0 / decimate=1 / interlaced=0 / bluray_compat=0 / constrained_intra=0 / bframes=3 / b_pyramid=2 / b_adapt=1 / b_bias=0 / direct=1 / weightb=1 / open_gop=0 / weightp=2 / keyint=240 / keyint_min=23 / scenecut=40 / intra_refresh=0 / rc_lookahead=40 / rc=crf / mbtree=1 / crf=23.0 / qcomp=0.60 / qpmin=0 / qpmax=69 / qpstep=4 / vbv_maxrate=62500 / vbv_bufsize=78125 / crf_max=0.0 / nal_hrd=none / ip_ratio=1.40 / aq=1:1.00
Default : Yes
Forced : No

Audio #1
ID : 2
Format : AC-3
Format/Info : Audio Coding 3
Format profile : Dolby Digital
Mode extension : CM (complete main)
Format settings, Endianness : Big
Codec ID : A_AC3
Duration : 2h 13mn
Bit rate mode : Constant
Bit rate : 192 Kbps
Channel(s) : 2 channels
Channel positions : Front: L R
Sampling rate : 48.0 KHz
Bit depth : 16 bits
Compression mode : Lossy
Delay relative to video : 8ms
Stream size : 184 MiB (15%)
Title : by fantasma
Language : Portuguese
Default : Yes
Forced : No

Audio #2
ID : 3
Format : AC-3
Format/Info : Audio Coding 3
Mode extension : CM (complete main)
Format settings, Endianness : Big
Codec ID : A_AC3
Duration : 2h 13mn
Bit rate mode : Constant
Bit rate : 448 Kbps
Channel(s) : 6 channels
Channel positions : Front: L C R, Side: L R, LFE
Sampling rate : 48.0 KHz
Bit depth : 16 bits
Compression mode : Lossy
Delay relative to video : 8ms
Stream size : 429 MiB (35%)
Title : by fantasma
Language : English
Default : No
Forced : No

Audio #3
ID : 4
Format : AC-3
Format/Info : Audio Coding 3
Format profile : Dolby Digital
Mode extension : CM (complete main)
Format settings, Endianness : Big
Codec ID : A_AC3
Duration : 2h 13mn
Bit rate mode : Constant
Bit rate : 192 Kbps
Channel(s) : 2 channels
Channel positions : Front: L R
Sampling rate : 48.0 KHz
Bit depth : 16 bits
Compression mode : Lossy
Delay relative to video : 8ms
Stream size : 184 MiB (15%)
Title : by fantasma
Language : Spanish
Default : No
Forced : No

Text #1
ID : 5
Format : VobSub
Muxing mode : zlib
Codec ID : S_VOBSUB
Codec ID/Info : The same subtitle format used on DVDs
Title : by fantasma
Language : Spanish
Default : No
Forced : No

Text #2
ID : 6
Format : VobSub
Muxing mode : zlib
Codec ID : S_VOBSUB
Codec ID/Info : The same subtitle format used on DVDs
Title : by fantasma
Language : Portuguese
Default : No
Forced : No

Text #3
ID : 7
Format : VobSub
Muxing mode : zlib
Codec ID : S_VOBSUB
Codec ID/Info : The same subtitle format used on DVDs
Title : by fantasma
Language : English
Default : No
Forced : No

Menu
00:00:00.000 : en:Chapter 01
00:01:50.367 : en:Chapter 02
00:05:21.667 : en:Chapter 03
00:07:11.867 : en:Chapter 04
00:12:26.367 : en:Chapter 05
00:15:33.335 : en:Chapter 06
00:17:56.335 : en:Chapter 07
00:19:24.535 : en:Chapter 08
00:22:46.336 : en:Chapter 09
00:26:08.170 : en:Chapter 10
00:29:14.203 : en:Chapter 11
00:31:08.503 : en:Chapter 12
00:33:39.703 : en:Chapter 13
00:35:07.504 : en:Chapter 14
00:39:47.838 : en:Chapter 15
00:45:33.038 : en:Chapter 16
00:47:15.538 : en:Chapter 17
00:50:21.172 : en:Chapter 18
00:53:14.839 : en:Chapter 19
00:55:37.173 : en:Chapter 20
00:57:11.540 : en:Chapter 21
00:59:18.341 : en:Chapter 22
01:04:52.042 : en:Chapter 23
01:09:19.542 : en:Chapter 24
01:14:44.343 : en:Chapter 25
01:18:13.843 : en:Chapter 26
01:24:47.510 : en:Chapter 27
01:27:11.211 : en:Chapter 28
01:30:27.012 : en:Chapter 29
01:32:28.379 : en:Chapter 30
01:36:38.347 : en:Chapter 31
01:41:10.048 : en:Chapter 32
01:43:25.016 : en:Chapter 33
01:46:31.717 : en:Chapter 34
01:48:32.184 : en:Chapter 35
01:53:35.184 : en:Chapter 36
01:58:11.851 : en:Chapter 37
02:02:07.385 : en:Chapter 38
02:04:31.019 : en:Chapter 39
02:05:03.720 : en:Chapter 40
